<mxfile host="app.diagrams.net" agent="Mozilla/5.0 (Windows NT 10.0; Win64; x64) AppleWebKit/537.36 (KHTML, like Gecko) Chrome/135.0.0.0 Safari/537.36 Edg/135.0.0.0" version="26.2.13">
  <diagram name="第 1 页" id="vm0noQgoKaf7Ory5WyCI">
    <mxGraphModel dx="979" dy="519" grid="1" gridSize="10" guides="1" tooltips="1" connect="1" arrows="1" fold="1" page="1" pageScale="1" pageWidth="827" pageHeight="1169" math="0" shadow="0">
      <root>
        <mxCell id="0" />
        <mxCell id="1" parent="0" />
        <mxCell id="FK6g6sYqLbhLBO1SA9hJ-13" value="" style="edgeStyle=orthogonalEdgeStyle;rounded=0;orthogonalLoop=1;jettySize=auto;html=1;" edge="1" parent="1" source="FK6g6sYqLbhLBO1SA9hJ-1" target="FK6g6sYqLbhLBO1SA9hJ-12">
          <mxGeometry relative="1" as="geometry" />
        </mxCell>
        <mxCell id="FK6g6sYqLbhLBO1SA9hJ-1" value="前视SC200AI" style="rounded=0;whiteSpace=wrap;html=1;" vertex="1" parent="1">
          <mxGeometry x="200" y="210" width="100" height="40" as="geometry" />
        </mxCell>
        <mxCell id="FK6g6sYqLbhLBO1SA9hJ-6" value="" style="edgeStyle=orthogonalEdgeStyle;rounded=0;orthogonalLoop=1;jettySize=auto;html=1;" edge="1" parent="1" source="FK6g6sYqLbhLBO1SA9hJ-4" target="FK6g6sYqLbhLBO1SA9hJ-5">
          <mxGeometry relative="1" as="geometry" />
        </mxCell>
        <mxCell id="FK6g6sYqLbhLBO1SA9hJ-4" value="下视SC200AI" style="rounded=0;whiteSpace=wrap;html=1;" vertex="1" parent="1">
          <mxGeometry x="200" y="340" width="100" height="40" as="geometry" />
        </mxCell>
        <mxCell id="FK6g6sYqLbhLBO1SA9hJ-11" value="" style="edgeStyle=orthogonalEdgeStyle;rounded=0;orthogonalLoop=1;jettySize=auto;html=1;" edge="1" parent="1" source="FK6g6sYqLbhLBO1SA9hJ-5">
          <mxGeometry relative="1" as="geometry">
            <mxPoint x="535" y="390" as="targetPoint" />
          </mxGeometry>
        </mxCell>
        <mxCell id="FK6g6sYqLbhLBO1SA9hJ-5" value="MIPI选择芯片" style="rounded=0;whiteSpace=wrap;html=1;" vertex="1" parent="1">
          <mxGeometry x="380" y="340" width="90" height="100" as="geometry" />
        </mxCell>
        <mxCell id="FK6g6sYqLbhLBO1SA9hJ-9" value="" style="edgeStyle=orthogonalEdgeStyle;rounded=0;orthogonalLoop=1;jettySize=auto;html=1;entryX=0;entryY=0.5;entryDx=0;entryDy=0;" edge="1" parent="1" source="FK6g6sYqLbhLBO1SA9hJ-7" target="FK6g6sYqLbhLBO1SA9hJ-5">
          <mxGeometry relative="1" as="geometry">
            <mxPoint x="380" y="430" as="targetPoint" />
          </mxGeometry>
        </mxCell>
        <mxCell id="FK6g6sYqLbhLBO1SA9hJ-7" value="后视SC200AI" style="rounded=0;whiteSpace=wrap;html=1;" vertex="1" parent="1">
          <mxGeometry x="200" y="400" width="100" height="40" as="geometry" />
        </mxCell>
        <mxCell id="FK6g6sYqLbhLBO1SA9hJ-15" value="" style="edgeStyle=orthogonalEdgeStyle;rounded=0;orthogonalLoop=1;jettySize=auto;html=1;" edge="1" parent="1" source="FK6g6sYqLbhLBO1SA9hJ-12" target="FK6g6sYqLbhLBO1SA9hJ-14">
          <mxGeometry relative="1" as="geometry" />
        </mxCell>
        <mxCell id="FK6g6sYqLbhLBO1SA9hJ-12" value="VICAP" style="whiteSpace=wrap;html=1;rounded=0;" vertex="1" parent="1">
          <mxGeometry x="370" y="210" width="100" height="40" as="geometry" />
        </mxCell>
        <mxCell id="FK6g6sYqLbhLBO1SA9hJ-22" value="" style="edgeStyle=orthogonalEdgeStyle;rounded=0;orthogonalLoop=1;jettySize=auto;html=1;" edge="1" parent="1" source="FK6g6sYqLbhLBO1SA9hJ-14" target="FK6g6sYqLbhLBO1SA9hJ-21">
          <mxGeometry relative="1" as="geometry" />
        </mxCell>
        <mxCell id="FK6g6sYqLbhLBO1SA9hJ-14" value="ISP VIR0" style="whiteSpace=wrap;html=1;rounded=0;" vertex="1" parent="1">
          <mxGeometry x="550" y="210" width="100" height="40" as="geometry" />
        </mxCell>
        <mxCell id="FK6g6sYqLbhLBO1SA9hJ-20" value="" style="edgeStyle=orthogonalEdgeStyle;rounded=0;orthogonalLoop=1;jettySize=auto;html=1;" edge="1" parent="1" source="FK6g6sYqLbhLBO1SA9hJ-16" target="FK6g6sYqLbhLBO1SA9hJ-19">
          <mxGeometry relative="1" as="geometry" />
        </mxCell>
        <mxCell id="FK6g6sYqLbhLBO1SA9hJ-16" value="VICAP" style="whiteSpace=wrap;html=1;rounded=0;" vertex="1" parent="1">
          <mxGeometry x="535" y="370" width="100" height="40" as="geometry" />
        </mxCell>
        <mxCell id="FK6g6sYqLbhLBO1SA9hJ-28" value="" style="edgeStyle=orthogonalEdgeStyle;rounded=0;orthogonalLoop=1;jettySize=auto;html=1;" edge="1" parent="1" source="FK6g6sYqLbhLBO1SA9hJ-19" target="FK6g6sYqLbhLBO1SA9hJ-27">
          <mxGeometry relative="1" as="geometry" />
        </mxCell>
        <mxCell id="FK6g6sYqLbhLBO1SA9hJ-19" value="ISP VIR1" style="whiteSpace=wrap;html=1;rounded=0;" vertex="1" parent="1">
          <mxGeometry x="700" y="370" width="100" height="40" as="geometry" />
        </mxCell>
        <mxCell id="FK6g6sYqLbhLBO1SA9hJ-24" value="" style="edgeStyle=orthogonalEdgeStyle;rounded=0;orthogonalLoop=1;jettySize=auto;html=1;" edge="1" parent="1" source="FK6g6sYqLbhLBO1SA9hJ-21" target="FK6g6sYqLbhLBO1SA9hJ-23">
          <mxGeometry relative="1" as="geometry" />
        </mxCell>
        <mxCell id="FK6g6sYqLbhLBO1SA9hJ-26" value="" style="edgeStyle=orthogonalEdgeStyle;rounded=0;orthogonalLoop=1;jettySize=auto;html=1;" edge="1" parent="1" source="FK6g6sYqLbhLBO1SA9hJ-21" target="FK6g6sYqLbhLBO1SA9hJ-25">
          <mxGeometry relative="1" as="geometry" />
        </mxCell>
        <mxCell id="FK6g6sYqLbhLBO1SA9hJ-21" value="VI" style="whiteSpace=wrap;html=1;rounded=0;" vertex="1" parent="1">
          <mxGeometry x="730" y="210" width="100" height="40" as="geometry" />
        </mxCell>
        <mxCell id="FK6g6sYqLbhLBO1SA9hJ-34" value="" style="edgeStyle=orthogonalEdgeStyle;rounded=0;orthogonalLoop=1;jettySize=auto;html=1;" edge="1" parent="1" source="FK6g6sYqLbhLBO1SA9hJ-23" target="FK6g6sYqLbhLBO1SA9hJ-33">
          <mxGeometry relative="1" as="geometry" />
        </mxCell>
        <mxCell id="FK6g6sYqLbhLBO1SA9hJ-23" value="VPSS0" style="whiteSpace=wrap;html=1;rounded=0;" vertex="1" parent="1">
          <mxGeometry x="910" y="180" width="100" height="40" as="geometry" />
        </mxCell>
        <mxCell id="FK6g6sYqLbhLBO1SA9hJ-25" value="VPSS1" style="whiteSpace=wrap;html=1;rounded=0;" vertex="1" parent="1">
          <mxGeometry x="910" y="240" width="100" height="40" as="geometry" />
        </mxCell>
        <mxCell id="FK6g6sYqLbhLBO1SA9hJ-30" value="" style="edgeStyle=orthogonalEdgeStyle;rounded=0;orthogonalLoop=1;jettySize=auto;html=1;" edge="1" parent="1" source="FK6g6sYqLbhLBO1SA9hJ-27" target="FK6g6sYqLbhLBO1SA9hJ-29">
          <mxGeometry relative="1" as="geometry" />
        </mxCell>
        <mxCell id="FK6g6sYqLbhLBO1SA9hJ-32" value="" style="edgeStyle=orthogonalEdgeStyle;rounded=0;orthogonalLoop=1;jettySize=auto;html=1;" edge="1" parent="1" source="FK6g6sYqLbhLBO1SA9hJ-27" target="FK6g6sYqLbhLBO1SA9hJ-31">
          <mxGeometry relative="1" as="geometry" />
        </mxCell>
        <mxCell id="FK6g6sYqLbhLBO1SA9hJ-27" value="VI" style="whiteSpace=wrap;html=1;rounded=0;" vertex="1" parent="1">
          <mxGeometry x="880" y="370" width="100" height="40" as="geometry" />
        </mxCell>
        <mxCell id="FK6g6sYqLbhLBO1SA9hJ-29" value="VPSS0" style="whiteSpace=wrap;html=1;rounded=0;" vertex="1" parent="1">
          <mxGeometry x="1060" y="330" width="100" height="40" as="geometry" />
        </mxCell>
        <mxCell id="FK6g6sYqLbhLBO1SA9hJ-31" value="VPSS1" style="whiteSpace=wrap;html=1;rounded=0;" vertex="1" parent="1">
          <mxGeometry x="1060" y="400" width="100" height="40" as="geometry" />
        </mxCell>
        <mxCell id="FK6g6sYqLbhLBO1SA9hJ-36" value="" style="edgeStyle=orthogonalEdgeStyle;rounded=0;orthogonalLoop=1;jettySize=auto;html=1;" edge="1" parent="1" source="FK6g6sYqLbhLBO1SA9hJ-33" target="FK6g6sYqLbhLBO1SA9hJ-35">
          <mxGeometry relative="1" as="geometry" />
        </mxCell>
        <mxCell id="FK6g6sYqLbhLBO1SA9hJ-33" value="VENC" style="whiteSpace=wrap;html=1;rounded=0;" vertex="1" parent="1">
          <mxGeometry x="1090" y="180" width="100" height="40" as="geometry" />
        </mxCell>
        <mxCell id="FK6g6sYqLbhLBO1SA9hJ-37" value="" style="edgeStyle=orthogonalEdgeStyle;rounded=0;orthogonalLoop=1;jettySize=auto;html=1;" edge="1" parent="1" source="FK6g6sYqLbhLBO1SA9hJ-35" target="FK6g6sYqLbhLBO1SA9hJ-33">
          <mxGeometry relative="1" as="geometry" />
        </mxCell>
        <mxCell id="FK6g6sYqLbhLBO1SA9hJ-35" value="RGN（&lt;span style=&quot;color: rgb(16, 18, 20); font-family: &amp;quot;PingFang SC&amp;quot;, &amp;quot;Segoe UI&amp;quot;, Arial, &amp;quot;Microsoft YaHei&amp;quot;, 微软雅黑, 宋体, &amp;quot;Malgun Gothic&amp;quot;, sans-serif; font-variant-ligatures: none; text-align: start; white-space: pre; background-color: rgb(255, 255, 255);&quot;&gt;&lt;font style=&quot;font-size: 13px;&quot;&gt;be used to &lt;/font&gt;&lt;/span&gt;&lt;div&gt;&lt;span style=&quot;color: rgb(16, 18, 20); font-family: &amp;quot;PingFang SC&amp;quot;, &amp;quot;Segoe UI&amp;quot;, Arial, &amp;quot;Microsoft YaHei&amp;quot;, 微软雅黑, 宋体, &amp;quot;Malgun Gothic&amp;quot;, sans-serif; font-variant-ligatures: none; text-align: start; white-space: pre; background-color: rgb(255, 255, 255);&quot;&gt;&lt;font style=&quot;font-size: 13px;&quot;&gt;attatch &lt;/font&gt;&lt;/span&gt;&lt;/div&gt;&lt;div&gt;&lt;span style=&quot;color: rgb(16, 18, 20); font-family: &amp;quot;PingFang SC&amp;quot;, &amp;quot;Segoe UI&amp;quot;, Arial, &amp;quot;Microsoft YaHei&amp;quot;, 微软雅黑, 宋体, &amp;quot;Malgun Gothic&amp;quot;, sans-serif; font-variant-ligatures: none; text-align: start; white-space: pre; background-color: rgb(255, 255, 255);&quot;&gt;&lt;font style=&quot;font-size: 13px;&quot;&gt;osd &lt;/font&gt;&lt;/span&gt;&lt;/div&gt;&lt;div&gt;&lt;span style=&quot;color: rgb(16, 18, 20); font-family: &amp;quot;PingFang SC&amp;quot;, &amp;quot;Segoe UI&amp;quot;, Arial, &amp;quot;Microsoft YaHei&amp;quot;, 微软雅黑, 宋体, &amp;quot;Malgun Gothic&amp;quot;, sans-serif; font-variant-ligatures: none; text-align: start; white-space: pre; background-color: rgb(255, 255, 255);&quot;&gt;&lt;font style=&quot;font-size: 13px;&quot;&gt;information&lt;/font&gt;&lt;/span&gt;）&lt;/div&gt;" style="whiteSpace=wrap;html=1;rounded=0;" vertex="1" parent="1">
          <mxGeometry x="1090" y="50" width="100" height="80" as="geometry" />
        </mxCell>
      </root>
    </mxGraphModel>
  </diagram>
</mxfile>
